<svg width="58" height="57" viewBox="0 0 58 57" fill="none" xmlns="http://www.w3.org/2000/svg">
<g filter="url(#filter0_dd_1257_131469)">
<rect x="5" y="3" width="48" height="48" rx="6" fill="white"/>
<path d="M14 24.3571H29.5769C30.1504 24.3571 30.6154 24.8129 30.6154 25.375V30.125C30.6154 30.6871 30.1504 31.1429 29.5769 31.1429H15.0385C14.4649 31.1429 14 30.6871 14 30.125V24.3571Z" fill="#171923"/>
<path d="M14 13.5H44.4615C45.0351 13.5 45.5 13.9557 45.5 14.5179V19.2679C45.5 19.83 45.0351 20.2857 44.4615 20.2857H15.0385C14.4649 20.2857 14 19.83 14 19.2679V13.5Z" fill="#171923"/>
<path d="M14 35.2143H37.5385C38.112 35.2143 38.5769 35.67 38.5769 36.2321V40.9821C38.5769 41.5443 38.112 42 37.5385 42H15.0385C14.4649 42 14 41.5443 14 40.9821V35.2143Z" fill="#171923"/>
</g>
<defs>
<filter id="filter0_dd_1257_131469" x="0.5" y="0" width="57" height="57" filterUnits="userSpaceOnUse" color-interpolation-filters="sRGB">
<feFlood flood-opacity="0" result="BackgroundImageFix"/>
<feColorMatrix in="SourceAlpha" type="matrix" values="0 0 0 0 0 0 0 0 0 0 0 0 0 0 0 0 0 0 127 0" result="hardAlpha"/>
<feOffset dy="1.5"/>
<feGaussianBlur stdDeviation="1.5"/>
<feColorMatrix type="matrix" values="0 0 0 0 0.0627451 0 0 0 0 0.0941176 0 0 0 0 0.156863 0 0 0 0.06 0"/>
<feBlend mode="normal" in2="BackgroundImageFix" result="effect1_dropShadow_1257_131469"/>
<feColorMatrix in="SourceAlpha" type="matrix" values="0 0 0 0 0 0 0 0 0 0 0 0 0 0 0 0 0 0 127 0" result="hardAlpha"/>
<feOffset dy="1.5"/>
<feGaussianBlur stdDeviation="2.25"/>
<feColorMatrix type="matrix" values="0 0 0 0 0.0627451 0 0 0 0 0.0941176 0 0 0 0 0.156863 0 0 0 0.1 0"/>
<feBlend mode="normal" in2="effect1_dropShadow_1257_131469" result="effect2_dropShadow_1257_131469"/>
<feBlend mode="normal" in="SourceGraphic" in2="effect2_dropShadow_1257_131469" result="shape"/>
</filter>
</defs>
</svg>
